<svg id="Layout" xmlns="http://www.w3.org/2000/svg" width="43.85mm" height="43.9mm" viewBox="0 0 124.31 124.44"><defs><style>.cls-1{fill:#fff;}.cls-2,.cls-4{fill:#1a1a18;}.cls-2,.cls-3{stroke:#1a1a18;stroke-width:0.28px;}.cls-3{fill:none;}</style></defs><polygon class="cls-1" points="87.62 58.86 87.62 121.89 121.82 121.89 121.82 110.61 99.43 110.61 99.43 58.86 87.62 58.86"/><path class="cls-1" d="M60.81,1.31A20.18,20.18,0,0,0,52,3.07c-6.6,3.17-8.24,10.1-8.24,16.17V32H56.27V17.83c0-3.18,1.85-5.24,4.71-5.24a4.47,4.47,0,0,1,3.26,1.28,5.42,5.42,0,0,1,1.45,4V32H78.21V19.24C78.21,7.85,71.86,1.31,60.81,1.31Z"/><path class="cls-1" d="M43.76,58.86v46.69c0,7.76,2.7,13,7.87,15.66a20.17,20.17,0,0,0,9.18,1.92c11.22,0,17.4-6.24,17.4-17.58V58.86H65.69V107a5.44,5.44,0,0,1-1.45,4A4.47,4.47,0,0,1,61,112.21c-2.86,0-4.71-2.06-4.71-5.24V58.86Z"/><polygon class="cls-1" points="24.84 58.86 24.84 99.06 24.23 99.06 12.58 60.03 1.31 60.03 1.31 123.06 10.82 123.06 10.82 82.87 11.42 82.87 23.08 121.89 34.34 121.89 34.34 58.86 24.84 58.86"/><rect class="cls-2" x="100.6" y="58.86" width="2.34" height="50.58"/><polygon class="cls-2" points="121.82 109.44 121.82 109.44 121.82 109.44 121.82 123.06 124.17 123.06 124.17 109.44 121.82 109.44"/><path class="cls-2" d="M59.15,14.23A3,3,0,0,0,58,15.45a5.1,5.1,0,0,0-.51,2.38V32h2.34V17.83c0-2,.83-3.42,2.36-3.89A3.83,3.83,0,0,0,61,13.76,3.5,3.5,0,0,0,59.15,14.23Z"/><path class="cls-2" d="M63.15.14c-.4,0-.78,0-1.17,0,11.11.47,17.4,7.61,17.4,19V32h2.34V19.24C81.72,7.39,75,.14,63.15.14Z"/><path class="cls-2" d="M61,111a3.81,3.81,0,0,0,1.05-.14l.12,0c-1.53-.46-2.36-1.87-2.36-3.88V58.86H57.45V107C57.45,109.44,58.68,111,61,111Z"/><path class="cls-2" d="M79.38,58.86h0v46.69c0,5.66-1.55,10.35-4.65,13.62-2.89,3.06-7.17,4.87-12.78,5.09.4,0,.79,0,1.2,0,12.38,0,18.57-7.43,18.57-18.75V58.86Z"/><polygon class="cls-2" points="23.66 92.4 23.66 85.22 15.79 58.86 13.45 58.86 23.47 92.4 23.66 92.4"/><polygon class="cls-2" points="11.99 89.52 11.99 123.06 14.33 123.06 14.33 96.7 12.19 89.52 11.99 89.52"/><rect class="cls-2" x="35.52" y="58.86" width="2.34" height="64.2"/><rect class="cls-2" x="23.66" y="85.22" height="7.18"/><rect class="cls-2" x="11.99" y="89.52" height="33.54"/><polygon class="cls-3" points="100.6 109.44 100.6 58.86 99.43 58.86 99.43 110.61 121.82 110.61 121.82 109.44 100.6 109.44"/><polygon class="cls-3" points="87.62 121.89 87.62 58.86 86.45 58.86 86.45 58.86 86.45 123.06 86.45 123.06 121.82 123.06 121.82 121.89 87.62 121.89"/><path class="cls-3" d="M62,.19c-.39,0-.77,0-1.17,0-6.1,0-10.52,1.8-13.49,4.9-3.22,3.38-4.73,8.3-4.73,14.2V32h1.17V19.24c0-6.07,1.64-13,8.24-16.17a20.18,20.18,0,0,1,8.81-1.76c11,0,17.4,6.54,17.4,17.93V32h1.17V19.24C79.38,7.8,73.09.66,62,.19Z"/><path class="cls-3" d="M61,12.59c-2.86,0-4.71,2.06-4.71,5.24V32h1.18V17.83A5.1,5.1,0,0,1,58,15.45a3,3,0,0,1,1.19-1.22A3.5,3.5,0,0,1,61,13.76a3.83,3.83,0,0,1,1.17.18c1.54.47,2.37,1.88,2.37,3.89V32h1.17V17.83a5.42,5.42,0,0,0-1.45-4A4.47,4.47,0,0,0,61,12.59Z"/><path class="cls-3" d="M79.38,58.86H78.21v46.69c0,11.34-6.18,17.58-17.4,17.58a20.17,20.17,0,0,1-9.18-1.92c-5.17-2.62-7.87-7.9-7.87-15.66V58.86H42.59v46.69c0,11.68,5.84,18.75,18.22,18.75.39,0,.75,0,1.13,0h0c5.61-.22,9.89-2,12.78-5.09,3.1-3.27,4.65-8,4.65-13.62V58.86Z"/><path class="cls-3" d="M61,112.21a4.47,4.47,0,0,0,3.26-1.28,5.44,5.44,0,0,0,1.45-4V58.86H64.52V107c0,2-.83,3.42-2.37,3.88l-.12,0A3.81,3.81,0,0,1,61,111h0c-2.3,0-3.53-1.59-3.53-4.06V58.86H56.27V107C56.27,110.15,58.12,112.21,61,112.21Z"/><polygon class="cls-3" points="24.23 99.06 24.84 99.06 24.84 58.86 23.66 58.86 23.66 58.86 23.66 92.4 23.66 92.4 23.47 92.4 13.45 58.86 13.45 58.86 0.14 58.86 0.14 58.86 0.14 123.06 0.14 123.06 1.31 123.06 1.31 60.03 12.58 60.03 24.23 99.06"/><polygon class="cls-3" points="34.34 58.86 34.34 121.89 23.08 121.89 11.42 82.87 10.82 82.87 10.82 123.06 11.99 123.06 11.99 89.52 11.99 89.52 12.19 89.52 22.21 123.06 22.21 123.06 35.52 123.06 35.52 58.86 34.34 58.86"/><polygon class="cls-4" points="21.66 39.59 21.66 53.82 18.55 53.82 18.55 39.59 13.16 39.59 13.16 37.02 27.02 37.02 27.02 39.59 21.66 39.59"/><path class="cls-4" d="M35.63,51.36c2.14,0,3.59-1.48,3.59-4.19V37h3.11V47.19c0,4.38-2.93,6.91-6.7,6.91s-6.7-2.53-6.7-6.91V37H32V47.17c0,2.71,1.47,4.19,3.59,4.19"/><path class="cls-4" d="M45.57,37h4.84c3.75,0,5.71,1.75,5.71,4.44A3.74,3.74,0,0,1,53.77,45,4.2,4.2,0,0,1,57.15,49c0,3-2.3,4.79-5.94,4.79H45.57Zm4.65,7.11c1.75,0,2.86-.78,2.86-2.26S52,39.59,50.22,39.59H48.61v4.54ZM51,51.24c1.77,0,3-.92,3-2.41s-1.2-2.4-3-2.4H48.61v4.81Z"/><path class="cls-4" d="M76.17,45.42a8.59,8.59,0,1,1-8.59-8.68,8.63,8.63,0,0,1,8.59,8.68m-14.07,0a5.49,5.49,0,1,0,11,0,5.49,5.49,0,1,0-11,0"/><path class="cls-4" d="M82,53.82H78.87V37h4.74C87.32,37,90,38.93,90,42.22a4.69,4.69,0,0,1-3.3,4.6l5.23,7H88.28l-4.81-6.49H82Zm-.06-9h1.63c1.91,0,3.2-.94,3.2-2.62s-1.29-2.65-3.2-2.65H81.92Z"/><path class="cls-4" d="M108.78,44.89c0,.3,0,.6,0,.9,0,5.25-3.68,8.31-8.12,8.31a8.68,8.68,0,0,1,0-17.36,8,8,0,0,1,7.09,4.14l-2.6,1.57a5.08,5.08,0,0,0-4.49-2.79,5.59,5.59,0,0,0-5.46,5.76,5.68,5.68,0,0,0,5.5,5.85,4.72,4.72,0,0,0,4.84-3.8h-4.65V44.89Z"/></svg>
